<?xml version="1.0" encoding="UTF-8" standalone="no"?>
<!-- Created with Inkscape (http://www.inkscape.org/) -->

<svg
   xmlns:dc="http://purl.org/dc/elements/1.1/"
   xmlns:cc="http://creativecommons.org/ns#"
   xmlns:rdf="http://www.w3.org/1999/02/22-rdf-syntax-ns#"
   xmlns:svg="http://www.w3.org/2000/svg"
   xmlns="http://www.w3.org/2000/svg"
   xmlns:sodipodi="http://sodipodi.sourceforge.net/DTD/sodipodi-0.dtd"
   xmlns:inkscape="http://www.inkscape.org/namespaces/inkscape"
   width="830"
   height="100"
   viewBox="0 0 830.00003 100"
   id="svg2"
   version="1.1"
   inkscape:version="0.91 r13725"
   inkscape:export-filename="C:\Users\bonnin\Dropbox\Enseignement\2016-2017\Programmation Web\Rattrapages\correction\img\heart-rate.png"
   inkscape:export-xdpi="15.459738"
   inkscape:export-ydpi="15.459738"
   sodipodi:docname="heart-rate.svg">
  <defs
     id="defs4" />
  <sodipodi:namedview
     id="base"
     pagecolor="#ffa500"
     bordercolor="#666666"
     borderopacity="1.0"
     inkscape:pageopacity="0"
     inkscape:pageshadow="2"
     inkscape:zoom="1.4"
     inkscape:cx="364.31638"
     inkscape:cy="29.481329"
     inkscape:document-units="px"
     inkscape:current-layer="layer1"
     showgrid="false"
     fit-margin-top="0"
     fit-margin-left="0"
     fit-margin-right="0"
     fit-margin-bottom="0"
     units="px"
     inkscape:window-width="1920"
     inkscape:window-height="1005"
     inkscape:window-x="-9"
     inkscape:window-y="-9"
     inkscape:window-maximized="1" />
  <metadata
     id="metadata7">
    <rdf:RDF>
      <cc:Work
         rdf:about="">
        <dc:format>image/svg+xml</dc:format>
        <dc:type
           rdf:resource="http://purl.org/dc/dcmitype/StillImage" />
        <dc:title></dc:title>
      </cc:Work>
    </rdf:RDF>
  </metadata>
  <g
     inkscape:label="Layer 1"
     inkscape:groupmode="layer"
     id="layer1"
     transform="translate(-470.0572,-554.16543)">
    <g
       id="g4195"
       transform="matrix(0.17130629,0,0,0.17130629,449.35743,540.7109)"
       inkscape:export-xdpi="15.459738"
       inkscape:export-ydpi="15.459738"
       style="fill:#ffffff">
      <path
         inkscape:connector-curvature="0"
         id="path4147"
         d="m 776.55078,78.541016 a 5.0005,5.0005 0 0 0 -4.94922,4.636718 l -25.14453,351.070316 -6.00391,-9.86133 a 5.0005,5.0005 0 0 0 -4.26953,-2.40039 l -23.94531,0 -21.94922,-52.48828 a 5.0005,5.0005 0 0 0 -9.19726,-0.0703 l -22.9336,52.5586 -29.05078,0 a 5.0005,5.0005 0 0 0 -4.80859,3.625 l -6.62891,23.20117 -12.40039,-24.11328 a 5.0005,5.0005 0 0 0 -4.44726,-2.71289 l -30.28125,0 -50.57032,-21.81445 a 5.0005,5.0005 0 0 0 -4.06445,0.0449 l -47.49414,21.76953 -156.49414,0 0,10 157.58398,0 a 5.0005,5.0005 0 0 0 2.08399,-0.45508 l 46.46484,-21.29687 49.47656,21.34179 a 5.0005,5.0005 0 0 0 1.98047,0.41016 l 28.26367,0 16.78711,32.64258 a 5.0005,5.0005 0 0 0 9.25391,-0.91407 l 9.06641,-31.72851 28.55273,0 a 5.0005,5.0005 0 0 0 4.58203,-3 l 19.56445,-44.83203 18.71876,44.75976 a 5.0005,5.0005 0 0 0 4.61132,3.07227 l 24.46485,0 12.68164,20.83203 a 5.0005,5.0005 0 0 0 9.25781,-2.24219 l 21.4707,-299.77929 39.26758,506.89062 a 5.0005,5.0005 0 0 0 9.96094,0.0937 l 21.78906,-225.79492 57.07813,0 a 5.0005,5.0005 0 0 0 3.62304,-1.55469 l 54.72461,-57.55664 47.92184,57.31836 a 5.0005,5.0005 0 0 0 3.836,1.79297 l 188.8984,0 0,-10 -186.5605,0 -50.01957,-59.82617 a 5.0005,5.0005 0 0 0 -7.45898,-0.23828 l -57.11133,60.06445 -59.47265,0 a 5.0005,5.0005 0 0 0 -4.97657,4.51953 L 821.58008,599.5918 781.57422,83.148438 a 5.0005,5.0005 0 0 0 -5.02344,-4.607422 z"
         style="color:#000000;font-style:normal;font-variant:normal;font-weight:normal;font-stretch:normal;font-size:medium;line-height:normal;font-family:sans-serif;text-indent:0;text-align:start;text-decoration:none;text-decoration-line:none;text-decoration-style:solid;text-decoration-color:#000000;letter-spacing:normal;word-spacing:normal;text-transform:none;direction:ltr;block-progression:tb;writing-mode:lr-tb;baseline-shift:baseline;text-anchor:start;white-space:normal;clip-rule:nonzero;display:inline;overflow:visible;visibility:visible;opacity:1;isolation:auto;mix-blend-mode:normal;color-interpolation:sRGB;color-interpolation-filters:linearRGB;solid-color:#000000;solid-opacity:1;fill:#ffffff;fill-opacity:1;fill-rule:evenodd;stroke:none;stroke-width:10;stroke-linecap:butt;stroke-linejoin:round;stroke-miterlimit:4;stroke-dasharray:none;stroke-dashoffset:0;stroke-opacity:1;color-rendering:auto;image-rendering:auto;shape-rendering:auto;text-rendering:auto;enable-background:accumulate" />
      <circle
         r="18.687822"
         cy="426.46048"
         cx="311.41382"
         id="path4149"
         style="opacity:1;fill:#ffffff;fill-opacity:1;stroke:none;stroke-width:10;stroke-linecap:round;stroke-linejoin:round;stroke-miterlimit:4;stroke-dasharray:none;stroke-opacity:1" />
      <path
         inkscape:connector-curvature="0"
         id="path4153"
         d="m 1668.5137,78.541016 a 5.0005,5.0005 0 0 0 -4.9473,4.636718 l -25.1445,351.070316 -6.0039,-9.86133 a 5.0005,5.0005 0 0 0 -4.2696,-2.40039 l -23.9453,0 -21.9511,-52.48828 a 5.0005,5.0005 0 0 0 -9.1954,-0.0703 l -22.9336,52.5586 -29.0507,0 a 5.0005,5.0005 0 0 0 -4.8086,3.625 l -6.6289,23.20117 -12.4004,-24.11328 a 5.0005,5.0005 0 0 0 -4.4473,-2.71289 l -30.2812,0 -50.5704,-21.81445 a 5.0005,5.0005 0 0 0 -4.0644,0.0449 l -47.4941,21.76953 -156.4942,0 0,10 157.584,0 a 5.0005,5.0005 0 0 0 2.084,-0.45508 l 46.4648,-21.29687 49.4766,21.34179 a 5.0005,5.0005 0 0 0 1.9805,0.41016 l 28.2636,0 16.7871,32.64258 a 5.0005,5.0005 0 0 0 9.2539,-0.91407 l 9.0665,-31.72851 28.5527,0 a 5.0005,5.0005 0 0 0 4.582,-3 l 19.5645,-44.83203 18.7168,44.75976 a 5.0005,5.0005 0 0 0 4.6132,3.07227 l 24.4649,0 12.6816,20.83203 a 5.0005,5.0005 0 0 0 9.2578,-2.24219 l 21.4707,-299.77929 39.2676,506.89062 a 5.0005,5.0005 0 0 0 9.961,0.0937 l 21.7871,-225.79492 57.0801,0 a 5.0005,5.0005 0 0 0 3.623,-1.55469 l 54.7246,-57.55664 47.9219,57.31836 a 5.0005,5.0005 0 0 0 3.8359,1.79297 l 188.8985,0 0,-10 -186.5606,0 -50.0195,-59.82617 a 5.0005,5.0005 0 0 0 -7.459,-0.23828 l -57.1113,60.06445 -59.4727,0 a 5.0005,5.0005 0 0 0 -4.9785,4.51953 l -16.7012,173.08398 -40.0058,-516.441402 a 5.0005,5.0005 0 0 0 -5.0254,-4.607422 z"
         style="color:#000000;font-style:normal;font-variant:normal;font-weight:normal;font-stretch:normal;font-size:medium;line-height:normal;font-family:sans-serif;text-indent:0;text-align:start;text-decoration:none;text-decoration-line:none;text-decoration-style:solid;text-decoration-color:#000000;letter-spacing:normal;word-spacing:normal;text-transform:none;direction:ltr;block-progression:tb;writing-mode:lr-tb;baseline-shift:baseline;text-anchor:start;white-space:normal;clip-rule:nonzero;display:inline;overflow:visible;visibility:visible;opacity:1;isolation:auto;mix-blend-mode:normal;color-interpolation:sRGB;color-interpolation-filters:linearRGB;solid-color:#000000;solid-opacity:1;fill:#ffffff;fill-opacity:1;fill-rule:evenodd;stroke:none;stroke-width:10;stroke-linecap:butt;stroke-linejoin:round;stroke-miterlimit:4;stroke-dasharray:none;stroke-dashoffset:0;stroke-opacity:1;color-rendering:auto;image-rendering:auto;shape-rendering:auto;text-rendering:auto;enable-background:accumulate" />
      <path
         inkscape:connector-curvature="0"
         id="path4155"
         d="m 2560.4785,78.541016 a 5.0005,5.0005 0 0 0 -4.9473,4.636718 l -25.1445,351.070316 -6.0039,-9.86133 a 5.0005,5.0005 0 0 0 -4.2695,-2.40039 l -23.9473,0 -21.9492,-52.48828 a 5.0005,5.0005 0 0 0 -9.1953,-0.0703 l -22.9336,52.5586 -29.0508,0 a 5.0005,5.0005 0 0 0 -4.8086,3.625 l -6.6289,23.20117 -12.4004,-24.11328 a 5.0005,5.0005 0 0 0 -4.4472,-2.71289 l -30.2832,0 -50.5684,-21.81445 a 5.0005,5.0005 0 0 0 -4.0645,0.0449 l -47.4941,21.76953 -156.4941,0 0,10 157.5839,0 a 5.0005,5.0005 0 0 0 2.084,-0.45508 l 46.4649,-21.29687 49.4765,21.34179 a 5.0005,5.0005 0 0 0 1.9805,0.41016 l 28.2637,0 16.7871,32.64258 a 5.0005,5.0005 0 0 0 9.2539,-0.91407 l 9.0664,-31.72851 28.5527,0 a 5.0005,5.0005 0 0 0 4.5821,-3 l 19.5644,-44.83203 18.7168,44.75976 a 5.0005,5.0005 0 0 0 4.6133,3.07227 l 24.4648,0 12.6817,20.83203 a 5.0005,5.0005 0 0 0 9.2578,-2.24219 l 21.4707,-299.77929 39.2676,506.89062 a 5.0005,5.0005 0 0 0 9.9609,0.0937 l 21.7871,-225.79492 57.0801,0 a 5.0005,5.0005 0 0 0 3.623,-1.55469 l 54.7246,-57.55664 47.9219,57.31836 a 5.0005,5.0005 0 0 0 3.836,1.79297 l 188.8984,0 0,-10 -186.5605,0 -50.0196,-59.82617 a 5.0005,5.0005 0 0 0 -7.459,-0.23828 l -57.1113,60.06445 -59.4726,0 a 5.0005,5.0005 0 0 0 -4.9786,4.51953 l -16.7011,173.08398 -40.0059,-516.441402 a 5.0005,5.0005 0 0 0 -5.0254,-4.607422 z"
         style="color:#000000;font-style:normal;font-variant:normal;font-weight:normal;font-stretch:normal;font-size:medium;line-height:normal;font-family:sans-serif;text-indent:0;text-align:start;text-decoration:none;text-decoration-line:none;text-decoration-style:solid;text-decoration-color:#000000;letter-spacing:normal;word-spacing:normal;text-transform:none;direction:ltr;block-progression:tb;writing-mode:lr-tb;baseline-shift:baseline;text-anchor:start;white-space:normal;clip-rule:nonzero;display:inline;overflow:visible;visibility:visible;opacity:1;isolation:auto;mix-blend-mode:normal;color-interpolation:sRGB;color-interpolation-filters:linearRGB;solid-color:#000000;solid-opacity:1;fill:#ffffff;fill-opacity:1;fill-rule:evenodd;stroke:none;stroke-width:10;stroke-linecap:butt;stroke-linejoin:round;stroke-miterlimit:4;stroke-dasharray:none;stroke-dashoffset:0;stroke-opacity:1;color-rendering:auto;image-rendering:auto;shape-rendering:auto;text-rendering:auto;enable-background:accumulate" />
      <path
         inkscape:connector-curvature="0"
         id="path4157"
         d="m 3452.4434,78.541016 a 5.0005,5.0005 0 0 0 -4.9473,4.636718 l -25.1445,351.070316 -6.0039,-9.86133 a 5.0005,5.0005 0 0 0 -4.2715,-2.40039 l -23.9453,0 -21.9493,-52.48828 a 5.0005,5.0005 0 0 0 -9.1953,-0.0703 l -22.9336,52.5586 -29.0527,0 a 5.0005,5.0005 0 0 0 -4.8066,3.625 l -6.6289,23.20117 -12.4024,-24.11328 a 5.0005,5.0005 0 0 0 -4.4453,-2.71289 l -30.2832,0 -50.5684,-21.81445 a 5.0005,5.0005 0 0 0 -4.0644,0.0449 l -47.4961,21.76953 -156.4922,0 0,10 157.584,0 a 5.0005,5.0005 0 0 0 2.084,-0.45508 l 46.4648,-21.29687 49.4766,21.34179 a 5.0005,5.0005 0 0 0 1.9804,0.41016 l 28.2637,0 16.7871,32.64258 a 5.0005,5.0005 0 0 0 9.2539,-0.91407 l 9.0645,-31.72851 28.5547,0 a 5.0005,5.0005 0 0 0 4.582,-3 l 19.5645,-44.83203 18.7168,44.75976 a 5.0005,5.0005 0 0 0 4.6132,3.07227 l 24.4649,0 12.6797,20.83203 a 5.0005,5.0005 0 0 0 9.2597,-2.24219 l 21.4707,-299.77929 39.2676,506.89062 a 5.0005,5.0005 0 0 0 9.9609,0.0937 l 21.7872,-225.79492 57.08,0 a 5.0005,5.0005 0 0 0 3.6231,-1.55469 l 54.7246,-57.55664 47.9219,57.31836 a 5.0005,5.0005 0 0 0 3.8359,1.79297 l 188.8984,0 0,-10 -186.5605,0 -50.0195,-59.82617 a 5.0005,5.0005 0 0 0 -7.459,-0.23828 l -57.1113,60.06445 -59.4747,0 a 5.0005,5.0005 0 0 0 -4.9765,4.51953 l -16.7012,173.09375 -40.0058,-516.451172 a 5.0005,5.0005 0 0 0 -5.0254,-4.607422 z"
         style="color:#000000;font-style:normal;font-variant:normal;font-weight:normal;font-stretch:normal;font-size:medium;line-height:normal;font-family:sans-serif;text-indent:0;text-align:start;text-decoration:none;text-decoration-line:none;text-decoration-style:solid;text-decoration-color:#000000;letter-spacing:normal;word-spacing:normal;text-transform:none;direction:ltr;block-progression:tb;writing-mode:lr-tb;baseline-shift:baseline;text-anchor:start;white-space:normal;clip-rule:nonzero;display:inline;overflow:visible;visibility:visible;opacity:1;isolation:auto;mix-blend-mode:normal;color-interpolation:sRGB;color-interpolation-filters:linearRGB;solid-color:#000000;solid-opacity:1;fill:#ffffff;fill-opacity:1;fill-rule:evenodd;stroke:none;stroke-width:10;stroke-linecap:butt;stroke-linejoin:round;stroke-miterlimit:4;stroke-dasharray:none;stroke-dashoffset:0;stroke-opacity:1;color-rendering:auto;image-rendering:auto;shape-rendering:auto;text-rendering:auto;enable-background:accumulate" />
      <g
         transform="translate(891.9648,0)"
         id="g4191"
         style="fill:#ffffff">
        <circle
           r="18.687822"
           cy="426.46048"
           cx="3883.4138"
           id="circle4165"
           style="opacity:1;fill:#ffffff;fill-opacity:1;stroke:none;stroke-width:10;stroke-linecap:round;stroke-linejoin:round;stroke-miterlimit:4;stroke-dasharray:none;stroke-opacity:1" />
        <path
           inkscape:connector-curvature="0"
           id="path4189"
           d="m 3452.4434,78.541016 a 5.0005,5.0005 0 0 0 -4.9473,4.636718 l -25.1445,351.070316 -6.0039,-9.86133 a 5.0005,5.0005 0 0 0 -4.2715,-2.40039 l -23.9453,0 -21.9493,-52.48828 a 5.0005,5.0005 0 0 0 -9.1953,-0.0703 l -22.9336,52.5586 -29.0527,0 a 5.0005,5.0005 0 0 0 -4.8066,3.625 l -6.6289,23.20117 -12.4024,-24.11328 a 5.0005,5.0005 0 0 0 -4.4453,-2.71289 l -30.2832,0 -50.5684,-21.81445 a 5.0005,5.0005 0 0 0 -4.0644,0.0449 l -47.4961,21.76953 -156.4922,0 0,10 157.584,0 a 5.0005,5.0005 0 0 0 2.084,-0.45508 l 46.4648,-21.29687 49.4766,21.34179 a 5.0005,5.0005 0 0 0 1.9804,0.41016 l 28.2637,0 16.7871,32.64258 a 5.0005,5.0005 0 0 0 9.2539,-0.91407 l 9.0645,-31.72851 28.5547,0 a 5.0005,5.0005 0 0 0 4.582,-3 l 19.5645,-44.83203 18.7168,44.75976 a 5.0005,5.0005 0 0 0 4.6132,3.07227 l 24.4649,0 12.6797,20.83203 a 5.0005,5.0005 0 0 0 9.2597,-2.24219 l 21.4707,-299.77929 39.2676,506.89062 a 5.0005,5.0005 0 0 0 9.9609,0.0937 l 21.7872,-225.79492 57.08,0 a 5.0005,5.0005 0 0 0 3.6231,-1.55469 l 54.7246,-57.55664 47.9219,57.31836 a 5.0005,5.0005 0 0 0 3.8359,1.79297 l 188.8984,0 0,-10 -186.5605,0 -50.0195,-59.82617 a 5.0005,5.0005 0 0 0 -7.459,-0.23828 l -57.1113,60.06445 -59.4747,0 a 5.0005,5.0005 0 0 0 -4.9765,4.51953 l -16.7012,173.09375 -40.0058,-516.451172 a 5.0005,5.0005 0 0 0 -5.0254,-4.607422 z"
           style="color:#000000;font-style:normal;font-variant:normal;font-weight:normal;font-stretch:normal;font-size:medium;line-height:normal;font-family:sans-serif;text-indent:0;text-align:start;text-decoration:none;text-decoration-line:none;text-decoration-style:solid;text-decoration-color:#000000;letter-spacing:normal;word-spacing:normal;text-transform:none;direction:ltr;block-progression:tb;writing-mode:lr-tb;baseline-shift:baseline;text-anchor:start;white-space:normal;clip-rule:nonzero;display:inline;overflow:visible;visibility:visible;opacity:1;isolation:auto;mix-blend-mode:normal;color-interpolation:sRGB;color-interpolation-filters:linearRGB;solid-color:#000000;solid-opacity:1;fill:#ffffff;fill-opacity:1;fill-rule:evenodd;stroke:none;stroke-width:10;stroke-linecap:butt;stroke-linejoin:round;stroke-miterlimit:4;stroke-dasharray:none;stroke-dashoffset:0;stroke-opacity:1;color-rendering:auto;image-rendering:auto;shape-rendering:auto;text-rendering:auto;enable-background:accumulate" />
      </g>
    </g>
  </g>
</svg>
